<?xml version="1.0" encoding="UTF-8"?>
<!DOCTYPE svg PUBLIC "-//W3C//DTD SVG 1.1//EN" "http://www.w3.org/Graphics/SVG/1.1/DTD/svg11.dtd">
<!-- Creator: CorelDRAW 2020 (64 Bit) -->
<svg xmlns="http://www.w3.org/2000/svg" xml:space="preserve" width="25.3073mm" height="7.6973mm" version="1.1" style="shape-rendering:geometricPrecision; text-rendering:geometricPrecision; image-rendering:optimizeQuality; fill-rule:evenodd; clip-rule:evenodd"
viewBox="0 0 246.18 74.88"
 xmlns:xlink="http://www.w3.org/1999/xlink"
 xmlns:xodm="http://www.corel.com/coreldraw/odm/2003">
 <defs>
 </defs>
 <g id="Camada_x0020_1">
  <metadata id="CorelCorpID_0Corel-Layer"/>
  <path class="fil0" fill="black" fill-rule="nonzero" d="M10.14 54.9c-2.13,0 -3.97,-0.33 -5.5,-0.98 -1.54,-0.66 -2.69,-1.73 -3.47,-3.23 -0.78,-1.5 -1.17,-3.47 -1.17,-5.93l0 -35.23 7.56 0 0 34c0,1.15 0.21,2.06 0.62,2.74 0.41,0.68 0.95,1.14 1.63,1.38 0.68,0.25 1.43,0.37 2.24,0.37l15.06 0 0 6.89 -16.97 0zm41.33 19.59c27.08,-37.38 66.66,-63.81 111.57,-74.49 -49.48,8.52 -94.05,35.06 -125.13,74.49l13.56 0zm20.37 0.38c-0.26,0 -0.56,-0.01 -0.92,-0.02 -0.36,-0.01 -0.74,-0.03 -1.14,-0.06 -0.4,-0.03 -0.77,-0.06 -1.12,-0.09 -0.35,-0.03 -0.63,-0.07 -0.85,-0.12l0 -0.81c0.28,0.02 0.64,0.05 1.07,0.07 0.43,0.02 0.9,0.04 1.41,0.06 0.51,0.01 1.01,0.02 1.51,0.02 0.57,0 1.1,-0.06 1.57,-0.17 0.48,-0.12 0.85,-0.34 1.14,-0.66 0.28,-0.32 0.42,-0.8 0.42,-1.42l0 -1.02c0,-0.68 -0.17,-1.21 -0.51,-1.57 -0.34,-0.37 -0.9,-0.55 -1.68,-0.55l-1.56 0c-1.05,0 -1.88,-0.23 -2.48,-0.69 -0.6,-0.46 -0.91,-1.27 -0.91,-2.43l0 -0.79c0,-1.26 0.33,-2.14 0.99,-2.64 0.66,-0.51 1.58,-0.76 2.76,-0.76 0.37,0 0.79,0.02 1.27,0.05 0.48,0.04 0.96,0.08 1.42,0.13 0.46,0.05 0.84,0.1 1.12,0.15l0 0.81c-0.52,-0.04 -1.12,-0.08 -1.79,-0.12 -0.67,-0.04 -1.31,-0.06 -1.92,-0.06 -0.59,0 -1.09,0.07 -1.51,0.21 -0.42,0.14 -0.74,0.39 -0.97,0.75 -0.23,0.36 -0.34,0.87 -0.34,1.53l0 0.71c0,0.82 0.21,1.38 0.63,1.68 0.42,0.3 1,0.45 1.75,0.45l1.63 0c0.72,0 1.31,0.13 1.78,0.39 0.46,0.26 0.81,0.62 1.02,1.08 0.22,0.46 0.33,0.98 0.33,1.57l0 1.12c0,0.87 -0.19,1.53 -0.57,1.99 -0.38,0.46 -0.88,0.78 -1.5,0.96 -0.62,0.18 -1.31,0.27 -2.05,0.27zm6.77 -0.11l0 -13.43 5.23 0c0.39,0 0.78,0.05 1.18,0.15 0.4,0.1 0.77,0.3 1.11,0.59 0.34,0.29 0.61,0.71 0.82,1.26 0.2,0.55 0.3,1.28 0.3,2.19 0,0.92 -0.11,1.66 -0.33,2.22 -0.22,0.57 -0.51,1 -0.86,1.31 -0.35,0.31 -0.73,0.51 -1.14,0.62 -0.41,0.11 -0.8,0.16 -1.16,0.16 -0.18,0 -0.46,-0 -0.83,-0.01 -0.37,-0.01 -0.77,-0.02 -1.2,-0.04 -0.43,-0.02 -0.83,-0.04 -1.2,-0.05 -0.37,-0.02 -0.66,-0.04 -0.85,-0.06l0 5.09 -1.06 0zm1.06 -5.87l3.95 0c0.46,0 0.89,-0.1 1.28,-0.29 0.39,-0.2 0.7,-0.53 0.93,-1.02 0.23,-0.48 0.35,-1.17 0.35,-2.06 0,-0.87 -0.12,-1.53 -0.35,-2 -0.23,-0.47 -0.53,-0.79 -0.89,-0.97 -0.36,-0.18 -0.75,-0.27 -1.18,-0.27l-4.1 0 0 6.61zm8.13 5.87l4.74 -13.43 1.37 0 4.74 13.43 -1.12 0 -1.48 -4.17 -5.67 0 -1.46 4.17 -1.12 0zm2.86 -5.12l5.09 0 -2.53 -7.36 -2.56 7.36zm14.38 5.23c-0.82,0 -1.52,-0.09 -2.11,-0.27 -0.59,-0.18 -1.08,-0.52 -1.46,-1 -0.38,-0.48 -0.67,-1.17 -0.85,-2.08 -0.18,-0.9 -0.27,-2.07 -0.27,-3.51 0,-1.36 0.09,-2.47 0.28,-3.36 0.19,-0.88 0.48,-1.58 0.87,-2.08 0.39,-0.5 0.89,-0.85 1.5,-1.05 0.61,-0.2 1.34,-0.3 2.18,-0.3 0.32,0 0.69,0.02 1.13,0.05 0.43,0.04 0.88,0.09 1.35,0.15 0.46,0.06 0.89,0.14 1.28,0.24l0 0.79c-0.2,-0.05 -0.49,-0.09 -0.88,-0.13 -0.39,-0.04 -0.83,-0.07 -1.31,-0.1 -0.48,-0.03 -0.96,-0.05 -1.44,-0.05 -0.71,0 -1.31,0.08 -1.8,0.25 -0.49,0.16 -0.89,0.46 -1.2,0.88 -0.3,0.42 -0.53,1.01 -0.68,1.78 -0.15,0.76 -0.22,1.74 -0.22,2.94 0,1.26 0.07,2.28 0.21,3.06 0.14,0.78 0.36,1.38 0.66,1.78 0.3,0.41 0.69,0.69 1.18,0.84 0.49,0.15 1.08,0.23 1.78,0.23 0.91,0 1.67,-0.03 2.26,-0.08 0.59,-0.06 1.07,-0.11 1.44,-0.16l0 0.79c-0.38,0.07 -0.79,0.14 -1.24,0.2 -0.45,0.06 -0.9,0.11 -1.36,0.15 -0.45,0.04 -0.88,0.06 -1.28,0.06zm8.77 -0.04c-0.3,0 -0.61,-0.03 -0.92,-0.08 -0.31,-0.06 -0.6,-0.17 -0.88,-0.33 -0.27,-0.16 -0.5,-0.42 -0.67,-0.75 -0.17,-0.34 -0.26,-0.78 -0.26,-1.35l0 -8.42c0,-0.5 0.07,-0.91 0.22,-1.24 0.15,-0.33 0.34,-0.59 0.59,-0.79 0.24,-0.2 0.52,-0.34 0.81,-0.42 0.3,-0.09 0.6,-0.13 0.91,-0.13 0.7,0.01 1.36,0.02 1.99,0.04 0.63,0.01 1.24,0.03 1.83,0.05 0.59,0.02 1.17,0.04 1.73,0.06l0 0.82 -5.33 0c-0.51,0 -0.92,0.14 -1.23,0.41 -0.3,0.27 -0.46,0.72 -0.46,1.33l0 3.57 6.24 0.09 0 0.79 -6.24 0.09 0 3.55c0,0.5 0.09,0.87 0.27,1.12 0.18,0.24 0.41,0.41 0.69,0.49 0.28,0.08 0.57,0.12 0.86,0.12l5.2 0 0 0.82c-0.56,0.02 -1.14,0.05 -1.75,0.06 -0.6,0.02 -1.2,0.04 -1.8,0.05 -0.6,0.02 -1.2,0.03 -1.79,0.05zm7.78 -0.07l0 -10.85c0,-0.5 0.07,-0.91 0.22,-1.24 0.15,-0.33 0.34,-0.59 0.59,-0.79 0.24,-0.2 0.52,-0.34 0.81,-0.42 0.3,-0.09 0.6,-0.13 0.91,-0.13 0.56,0.01 1.15,0.02 1.78,0.03 0.62,0.01 1.25,0.02 1.89,0.04 0.64,0.02 1.27,0.05 1.88,0.08l0 0.82 -5.34 0c-0.5,0 -0.9,0.14 -1.21,0.43 -0.3,0.29 -0.46,0.72 -0.46,1.31l0 3.84 6.24 0.09 0 0.79 -6.24 0.09 0 5.91 -1.06 0zm12.87 0c-0.46,0 -0.89,-0.07 -1.28,-0.22 -0.39,-0.15 -0.7,-0.41 -0.93,-0.78 -0.23,-0.37 -0.35,-0.89 -0.35,-1.55l0 -10.89 1.06 0 0 10.76c0,0.48 0.08,0.84 0.25,1.08 0.16,0.24 0.38,0.41 0.64,0.49 0.26,0.08 0.53,0.12 0.8,0.12l4.98 0 0 0.99 -5.16 0zm7.16 0l0 -13.43 1.06 0 0 13.43 -1.06 0zm8.09 0.09c-0.85,0.01 -1.57,-0.11 -2.13,-0.37 -0.57,-0.26 -1.02,-0.66 -1.35,-1.22 -0.33,-0.56 -0.56,-1.27 -0.7,-2.14 -0.13,-0.87 -0.2,-1.92 -0.2,-3.14 0,-1.16 0.07,-2.17 0.21,-3.02 0.14,-0.85 0.38,-1.56 0.71,-2.11 0.34,-0.55 0.79,-0.97 1.36,-1.23 0.57,-0.27 1.29,-0.4 2.14,-0.4 0.43,0 0.89,0.01 1.4,0.05 0.51,0.03 1.01,0.08 1.51,0.15 0.5,0.07 0.95,0.14 1.35,0.23l0 0.79c-0.23,-0.02 -0.57,-0.06 -1.03,-0.1 -0.45,-0.04 -0.95,-0.08 -1.49,-0.11 -0.54,-0.03 -1.08,-0.05 -1.62,-0.05 -0.9,0 -1.61,0.2 -2.12,0.59 -0.51,0.4 -0.87,1.02 -1.07,1.88 -0.2,0.85 -0.3,1.98 -0.3,3.39 0,1.12 0.06,2.06 0.17,2.81 0.11,0.75 0.3,1.35 0.56,1.8 0.26,0.45 0.62,0.77 1.08,0.96 0.46,0.19 1.04,0.28 1.75,0.28 0.61,0 1.24,-0.09 1.89,-0.26 0.65,-0.17 1.22,-0.35 1.69,-0.55l0 -4.37 -3.51 0 0 -0.77c0.23,-0.04 0.51,-0.07 0.82,-0.09 0.32,-0.02 0.66,-0.05 1.03,-0.06 0.37,-0.02 0.74,-0.03 1.13,-0.03 0.31,0 0.59,0.01 0.86,0.02 0.27,0.01 0.5,0.03 0.7,0.05l0 6.94 -0.77 0 -0.18 -0.95c-0.45,0.22 -1.02,0.44 -1.72,0.68 -0.7,0.23 -1.42,0.35 -2.18,0.37zm7.83 -0.09l0 -13.43 1.06 0 0 6.42 7.25 0 0 -6.42 1.06 0 0 13.43 -1.06 0 0 -6.06 -7.25 0 0 6.06 -1.06 0zm15.46 0l0 -12.48 -4.3 0 0 -0.95 9.66 0 0 0.95 -4.3 0 0 12.48 -1.06 0zm-123.38 -19.5c-3.03,0 -5.69,-0.3 -7.96,-0.89 -2.28,-0.59 -4.18,-1.68 -5.72,-3.26 -1.54,-1.58 -2.68,-3.88 -3.44,-6.92 -0.76,-3.03 -1.14,-6.99 -1.14,-11.87 0,-4.92 0.39,-8.9 1.17,-11.96 0.78,-3.05 1.94,-5.39 3.47,-7.01 1.54,-1.62 3.44,-2.74 5.72,-3.35 2.27,-0.61 4.91,-0.92 7.9,-0.92 3.07,0 5.76,0.31 8.06,0.92 2.29,0.61 4.2,1.73 5.72,3.35 1.52,1.62 2.65,3.96 3.41,7.01 0.76,3.05 1.14,7.04 1.14,11.96 0,3.12 -0.16,5.87 -0.47,8.23 -5.82,4.58 -11.39,9.48 -16.7,14.68 -0.38,0.01 -0.77,0.01 -1.16,0.01zm0 -6.82c2.01,0 3.7,-0.21 5.07,-0.65 1.37,-0.43 2.47,-1.21 3.29,-2.34 0.82,-1.13 1.41,-2.75 1.78,-4.86 0.37,-2.11 0.55,-4.87 0.55,-8.27 0,-3.61 -0.2,-6.49 -0.59,-8.64 -0.39,-2.15 -0.99,-3.79 -1.81,-4.92 -0.82,-1.13 -1.91,-1.89 -3.26,-2.28 -1.35,-0.39 -3.03,-0.58 -5.04,-0.58 -1.89,0 -3.5,0.19 -4.86,0.58 -1.35,0.39 -2.45,1.15 -3.29,2.28 -0.84,1.13 -1.47,2.77 -1.88,4.92 -0.41,2.15 -0.61,5.03 -0.61,8.64 0,3.4 0.17,6.16 0.52,8.27 0.35,2.11 0.93,3.73 1.75,4.86 0.82,1.13 1.92,1.91 3.29,2.34 1.37,0.43 3.06,0.65 5.07,0.65zm42.73 6.82c-3.03,0 -5.69,-0.3 -7.96,-0.89 -2.27,-0.59 -4.18,-1.68 -5.72,-3.26 -0.86,-0.88 -1.59,-1.98 -2.21,-3.31 2,-1.9 4.04,-3.75 6.11,-5.56 0.35,1.33 0.82,2.41 1.41,3.22 0.82,1.13 1.92,1.91 3.29,2.34 1.37,0.43 3.06,0.65 5.07,0.65 2.01,0 3.7,-0.21 5.07,-0.65 1.37,-0.43 2.47,-1.21 3.29,-2.34 0.82,-1.13 1.41,-2.75 1.78,-4.86 0.37,-2.11 0.55,-4.87 0.55,-8.27 0,-2.09 -0.07,-3.93 -0.2,-5.53 2.33,-1.54 4.7,-3.04 7.09,-4.48 0.48,2.74 0.73,6.08 0.73,10.01 0,4.88 -0.38,8.83 -1.14,11.87 -0.76,3.03 -1.91,5.34 -3.44,6.92 -1.54,1.58 -3.44,2.66 -5.72,3.26 -2.28,0.59 -4.95,0.89 -8.02,0.89zm-18.2 -19.73c-0.04,-1.02 -0.06,-2.09 -0.06,-3.2 0,-4.92 0.39,-8.9 1.17,-11.96 0.78,-3.05 1.94,-5.39 3.47,-7.01 1.54,-1.62 3.44,-2.74 5.72,-3.35 2.27,-0.61 4.91,-0.92 7.9,-0.92 3.07,0 5.76,0.31 8.05,0.92 2.29,0.61 4.2,1.73 5.72,3.35 0.64,0.69 1.22,1.5 1.73,2.45 -2.33,1.08 -4.64,2.2 -6.93,3.36 -0.09,-0.14 -0.18,-0.28 -0.27,-0.4 -0.82,-1.13 -1.91,-1.89 -3.26,-2.28 -1.35,-0.39 -3.03,-0.58 -5.04,-0.58 -1.89,0 -3.5,0.19 -4.86,0.58 -1.35,0.39 -2.45,1.15 -3.29,2.28 -0.84,1.13 -1.46,2.77 -1.87,4.92 -0.33,1.73 -0.53,3.94 -0.59,6.61 -2.57,1.68 -5.1,3.42 -7.59,5.22zm43.84 19.36l0 -37.15c2.49,-1.34 5.01,-2.62 7.56,-3.85l0 14.99 6.7 0 10.45 -19.37 8.12 0 -12.48 22.75 12.79 22.63 -8.12 0 -10.76 -19.12 -6.7 0 0 19.12 -7.56 0zm71.63 0.31c-2.5,0 -4.82,-0.21 -6.95,-0.64 -2.13,-0.43 -3.98,-1.19 -5.53,-2.28 -1.56,-1.09 -2.76,-2.58 -3.6,-4.49 -0.84,-1.91 -1.26,-4.36 -1.26,-7.35l0 -30.93 7.56 0 0 30.93c0,1.97 0.39,3.54 1.17,4.7 0.78,1.17 1.89,2 3.35,2.49 1.46,0.49 3.21,0.74 5.26,0.74 2.05,0 3.8,-0.25 5.26,-0.74 1.46,-0.49 2.57,-1.32 3.35,-2.49 0.78,-1.17 1.17,-2.74 1.17,-4.7l0 -30.93 7.56 0 0 30.93c0,2.99 -0.42,5.44 -1.26,7.35 -0.84,1.91 -2.04,3.4 -3.6,4.49 -1.56,1.09 -3.39,1.84 -5.5,2.28 -2.11,0.43 -4.44,0.64 -6.98,0.64zm25.21 -0.31l0 -45.37 18.75 0c1.43,0 2.89,0.17 4.36,0.52 1.48,0.35 2.84,1.04 4.09,2.06 1.25,1.03 2.25,2.54 3.01,4.55 0.76,2.01 1.14,4.69 1.14,8.05 0,3.36 -0.39,6.07 -1.17,8.12 -0.78,2.05 -1.79,3.62 -3.04,4.7 -1.25,1.09 -2.6,1.82 -4.06,2.21 -1.46,0.39 -2.86,0.58 -4.21,0.58 -0.7,0 -1.57,-0.03 -2.61,-0.09 -1.04,-0.06 -2.13,-0.14 -3.26,-0.25 -1.13,-0.1 -2.17,-0.21 -3.14,-0.31 -0.96,-0.1 -1.73,-0.19 -2.31,-0.28l0 15.49 -7.56 0zm7.56 -21.46l10.21 0c1.19,0 2.23,-0.28 3.14,-0.83 0.9,-0.55 1.6,-1.46 2.09,-2.71 0.49,-1.25 0.74,-2.96 0.74,-5.13 0,-2.13 -0.26,-3.81 -0.77,-5.04 -0.51,-1.23 -1.19,-2.1 -2.03,-2.61 -0.84,-0.51 -1.81,-0.77 -2.92,-0.77l-10.45 0 0 17.09z"/>
 </g>
</svg>
