<?xml version="1.0" encoding="UTF-8"?>
<!DOCTYPE svg PUBLIC "-//W3C//DTD SVG 1.1//EN" "http://www.w3.org/Graphics/SVG/1.1/DTD/svg11.dtd">
<!-- Creator: CorelDRAW 2020 (64 Bit) -->
<svg xmlns="http://www.w3.org/2000/svg" xml:space="preserve" width="25.3077mm" height="7.6974mm" version="1.1" style="shape-rendering:geometricPrecision; text-rendering:geometricPrecision; image-rendering:optimizeQuality; fill-rule:evenodd; clip-rule:evenodd"
viewBox="0 0 255.64 77.75"
 xmlns:xlink="http://www.w3.org/1999/xlink"
 xmlns:xodm="http://www.corel.com/coreldraw/odm/2003">
 <defs>
 </defs>
 <g id="Camada_x0020_1">
  <metadata id="CorelCorpID_0Corel-Layer"/>
  <g id="_1762932152128">
   <path class="fil0" fill="white" fill-rule="nonzero" d="M10.53 57.01c-2.21,0 -4.12,-0.34 -5.71,-1.02 -1.6,-0.68 -2.8,-1.8 -3.61,-3.35 -0.81,-1.55 -1.21,-3.61 -1.21,-6.16l0 -36.58 7.85 0 0 35.31c0,1.19 0.21,2.14 0.64,2.84 0.43,0.7 0.99,1.18 1.69,1.44 0.7,0.25 1.48,0.38 2.33,0.38l15.64 0 0 7.15 -17.62 0zm40.99 0.38c-3.15,0 -5.91,-0.31 -8.27,-0.93 -2.36,-0.62 -4.34,-1.75 -5.94,-3.38 -1.6,-1.64 -2.79,-4.03 -3.57,-7.18 -0.79,-3.15 -1.18,-7.26 -1.18,-12.32 0,-5.11 0.4,-9.25 1.21,-12.42 0.81,-3.17 2.01,-5.6 3.61,-7.28 1.6,-1.68 3.57,-2.84 5.94,-3.48 2.36,-0.64 5.1,-0.96 8.2,-0.96 3.19,0 5.98,0.32 8.36,0.96 2.38,0.64 4.36,1.8 5.94,3.48 1.57,1.68 2.76,4.11 3.54,7.28 0.79,3.17 1.18,7.31 1.18,12.42 0,3.24 -0.16,6.09 -0.48,8.55 -6.04,4.75 -11.83,9.84 -17.34,15.25 -0.39,0.01 -0.79,0.02 -1.2,0.02zm0 -7.09c2.09,0 3.84,-0.22 5.27,-0.67 1.43,-0.45 2.56,-1.26 3.42,-2.43 0.85,-1.17 1.47,-2.85 1.85,-5.04 0.38,-2.19 0.57,-5.05 0.57,-8.59 0,-3.75 -0.2,-6.74 -0.61,-8.97 -0.4,-2.23 -1.03,-3.94 -1.88,-5.11 -0.85,-1.17 -1.98,-1.96 -3.38,-2.36 -1.41,-0.4 -3.15,-0.61 -5.24,-0.61 -1.96,0 -3.64,0.2 -5.04,0.61 -1.41,0.4 -2.54,1.19 -3.42,2.36 -0.87,1.17 -1.52,2.87 -1.95,5.11 -0.43,2.23 -0.64,5.22 -0.64,8.97 0,3.53 0.18,6.4 0.54,8.59 0.36,2.19 0.97,3.87 1.82,5.04 0.85,1.17 1.99,1.98 3.42,2.43 1.43,0.45 3.18,0.67 5.27,0.67zm44.37 7.09c-3.15,0 -5.91,-0.31 -8.27,-0.93 -2.36,-0.62 -4.34,-1.75 -5.94,-3.38 -0.89,-0.91 -1.65,-2.06 -2.29,-3.44 2.08,-1.97 4.19,-3.9 6.35,-5.78 0.36,1.38 0.85,2.5 1.46,3.35 0.85,1.17 1.99,1.98 3.42,2.43 1.43,0.45 3.18,0.67 5.27,0.67 2.09,0 3.84,-0.22 5.27,-0.67 1.43,-0.45 2.56,-1.26 3.42,-2.43 0.85,-1.17 1.47,-2.85 1.85,-5.04 0.38,-2.19 0.57,-5.05 0.57,-8.59 0,-2.17 -0.07,-4.08 -0.2,-5.74 2.42,-1.6 4.88,-3.15 7.36,-4.65 0.5,2.85 0.75,6.31 0.75,10.39 0,5.07 -0.39,9.17 -1.18,12.32 -0.79,3.15 -1.98,5.54 -3.57,7.18 -1.6,1.64 -3.58,2.77 -5.94,3.38 -2.36,0.62 -5.14,0.93 -8.33,0.93zm-18.9 -20.49c-0.04,-1.06 -0.06,-2.16 -0.06,-3.32 0,-5.11 0.4,-9.25 1.21,-12.42 0.81,-3.17 2.01,-5.6 3.61,-7.28 1.6,-1.68 3.57,-2.84 5.94,-3.48 2.36,-0.64 5.1,-0.96 8.2,-0.96 3.19,0 5.98,0.32 8.36,0.96 2.38,0.64 4.36,1.8 5.94,3.48 0.67,0.71 1.27,1.56 1.79,2.54 -2.42,1.12 -4.82,2.28 -7.19,3.5 -0.09,-0.15 -0.18,-0.29 -0.28,-0.42 -0.85,-1.17 -1.98,-1.96 -3.38,-2.36 -1.41,-0.4 -3.15,-0.61 -5.24,-0.61 -1.96,0 -3.64,0.2 -5.04,0.61 -1.41,0.4 -2.54,1.19 -3.42,2.36 -0.87,1.17 -1.52,2.87 -1.95,5.11 -0.34,1.8 -0.55,4.09 -0.61,6.87 -2.67,1.75 -5.29,3.56 -7.88,5.42zm45.52 20.11l0 -38.58c2.59,-1.39 5.2,-2.72 7.85,-4l0 15.57 6.96 0 10.85 -20.11 8.43 0 -12.96 23.62 13.28 23.5 -8.43 0 -11.17 -19.86 -6.96 0 0 19.86 -7.85 0zm74.38 0.32c-2.6,0 -5,-0.22 -7.21,-0.67 -2.21,-0.45 -4.13,-1.23 -5.75,-2.36 -1.62,-1.13 -2.86,-2.68 -3.73,-4.66 -0.87,-1.98 -1.31,-4.52 -1.31,-7.63l0 -32.12 7.85 0 0 32.12c0,2.04 0.4,3.67 1.21,4.88 0.81,1.21 1.97,2.07 3.48,2.59 1.51,0.51 3.33,0.77 5.46,0.77 2.13,0 3.95,-0.26 5.46,-0.77 1.51,-0.51 2.67,-1.37 3.48,-2.59 0.81,-1.21 1.21,-2.84 1.21,-4.88l0 -32.12 7.85 0 0 32.12c0,3.11 -0.44,5.65 -1.31,7.63 -0.87,1.98 -2.12,3.53 -3.73,4.66 -1.62,1.13 -3.52,1.92 -5.71,2.36 -2.19,0.45 -4.61,0.67 -7.25,0.67zm26.18 -0.32l0 -47.12 19.47 0c1.49,0 3,0.18 4.53,0.54 1.53,0.36 2.95,1.07 4.25,2.14 1.3,1.06 2.34,2.64 3.13,4.72 0.79,2.08 1.18,4.87 1.18,8.36 0,3.49 -0.41,6.3 -1.21,8.43 -0.81,2.13 -1.86,3.76 -3.16,4.88 -1.3,1.13 -2.7,1.89 -4.21,2.3 -1.51,0.4 -2.97,0.61 -4.37,0.61 -0.72,0 -1.63,-0.03 -2.71,-0.1 -1.08,-0.06 -2.21,-0.15 -3.38,-0.26 -1.17,-0.11 -2.26,-0.21 -3.26,-0.32 -1,-0.11 -1.8,-0.2 -2.39,-0.29l0 16.09 -7.85 0zm7.85 -22.28l10.6 0c1.23,0 2.32,-0.29 3.26,-0.86 0.94,-0.57 1.66,-1.51 2.17,-2.81 0.51,-1.3 0.77,-3.08 0.77,-5.33 0,-2.21 -0.27,-3.96 -0.8,-5.24 -0.53,-1.28 -1.23,-2.18 -2.11,-2.71 -0.87,-0.53 -1.88,-0.8 -3.03,-0.8l-10.85 0 0 17.75z"/>
   <path class="fil1" fill="#C5523A" fill-rule="nonzero" d="M74.61 77.75c-0.27,0 -0.59,-0.01 -0.96,-0.02 -0.37,-0.01 -0.77,-0.03 -1.18,-0.07 -0.41,-0.03 -0.8,-0.06 -1.16,-0.09 -0.36,-0.03 -0.66,-0.07 -0.88,-0.12l0 -0.84c0.29,0.03 0.66,0.05 1.11,0.08 0.45,0.03 0.94,0.04 1.46,0.06 0.53,0.01 1.05,0.02 1.57,0.02 0.6,0 1.14,-0.06 1.64,-0.18 0.49,-0.12 0.89,-0.35 1.18,-0.68 0.29,-0.34 0.44,-0.83 0.44,-1.47l0 -1.06c0,-0.71 -0.18,-1.25 -0.53,-1.63 -0.35,-0.38 -0.94,-0.57 -1.75,-0.57l-1.62 0c-1.09,0 -1.95,-0.24 -2.58,-0.71 -0.63,-0.48 -0.94,-1.32 -0.94,-2.52l0 -0.82c0,-1.3 0.34,-2.22 1.03,-2.75 0.68,-0.53 1.64,-0.79 2.87,-0.79 0.38,0 0.82,0.02 1.32,0.06 0.5,0.04 0.99,0.08 1.47,0.13 0.48,0.05 0.87,0.1 1.16,0.15l0 0.84c-0.55,-0.04 -1.17,-0.08 -1.86,-0.12 -0.7,-0.04 -1.36,-0.07 -2,-0.07 -0.61,0 -1.13,0.07 -1.57,0.22 -0.44,0.15 -0.77,0.41 -1.01,0.78 -0.23,0.37 -0.35,0.9 -0.35,1.59l0 0.74c0,0.85 0.22,1.43 0.66,1.74 0.44,0.31 1.04,0.47 1.82,0.47l1.69 0c0.75,0 1.36,0.14 1.84,0.41 0.48,0.27 0.84,0.65 1.06,1.12 0.23,0.47 0.34,1.02 0.34,1.63l0 1.16c0,0.9 -0.2,1.59 -0.59,2.07 -0.39,0.48 -0.91,0.81 -1.56,1 -0.65,0.18 -1.36,0.28 -2.13,0.28zm7.03 -0.11l0 -13.95 5.44 0c0.41,0 0.81,0.05 1.23,0.16 0.41,0.11 0.79,0.31 1.15,0.61 0.35,0.3 0.64,0.73 0.85,1.31 0.21,0.58 0.31,1.33 0.31,2.27 0,0.95 -0.11,1.72 -0.34,2.31 -0.23,0.59 -0.53,1.04 -0.89,1.36 -0.37,0.32 -0.76,0.53 -1.19,0.65 -0.42,0.11 -0.83,0.17 -1.21,0.17 -0.19,0 -0.48,-0 -0.86,-0.01 -0.39,-0.01 -0.8,-0.02 -1.24,-0.04 -0.44,-0.02 -0.86,-0.04 -1.25,-0.06 -0.39,-0.02 -0.68,-0.04 -0.88,-0.07l0 5.28 -1.1 0zm1.1 -6.1l4.11 0c0.48,0 0.93,-0.1 1.33,-0.3 0.41,-0.2 0.73,-0.55 0.97,-1.05 0.24,-0.5 0.36,-1.21 0.36,-2.14 0,-0.9 -0.12,-1.59 -0.36,-2.08 -0.24,-0.49 -0.55,-0.82 -0.92,-1.01 -0.37,-0.18 -0.78,-0.28 -1.23,-0.28l-4.26 0 0 6.86zm8.44 6.1l4.92 -13.95 1.43 0 4.92 13.95 -1.16 0 -1.54 -4.33 -5.89 0 -1.52 4.33 -1.16 0zm2.96 -5.32l5.28 0 -2.62 -7.64 -2.66 7.64zm14.94 5.44c-0.85,0 -1.58,-0.09 -2.2,-0.28 -0.62,-0.19 -1.12,-0.54 -1.52,-1.04 -0.4,-0.5 -0.69,-1.22 -0.88,-2.16 -0.19,-0.94 -0.29,-2.15 -0.29,-3.65 0,-1.41 0.1,-2.57 0.29,-3.49 0.2,-0.92 0.5,-1.64 0.9,-2.16 0.41,-0.52 0.92,-0.88 1.56,-1.09 0.63,-0.21 1.39,-0.31 2.26,-0.31 0.33,0 0.72,0.02 1.17,0.06 0.45,0.04 0.92,0.09 1.4,0.15 0.48,0.06 0.92,0.15 1.33,0.25l0 0.82c-0.2,-0.05 -0.51,-0.1 -0.91,-0.13 -0.41,-0.04 -0.86,-0.07 -1.36,-0.11 -0.5,-0.03 -1,-0.05 -1.49,-0.05 -0.73,0 -1.36,0.09 -1.87,0.26 -0.51,0.17 -0.93,0.48 -1.24,0.91 -0.32,0.44 -0.55,1.05 -0.7,1.84 -0.15,0.79 -0.23,1.81 -0.23,3.05 0,1.31 0.07,2.36 0.22,3.17 0.15,0.81 0.37,1.43 0.68,1.85 0.31,0.42 0.72,0.72 1.23,0.87 0.51,0.16 1.12,0.24 1.84,0.24 0.95,0 1.73,-0.03 2.35,-0.09 0.61,-0.06 1.11,-0.11 1.49,-0.16l0 0.82c-0.39,0.08 -0.82,0.15 -1.29,0.21 -0.47,0.06 -0.94,0.11 -1.41,0.15 -0.47,0.04 -0.91,0.06 -1.33,0.06zm9.1 -0.04c-0.32,0 -0.64,-0.03 -0.96,-0.08 -0.32,-0.06 -0.63,-0.17 -0.91,-0.34 -0.28,-0.17 -0.52,-0.43 -0.69,-0.78 -0.18,-0.35 -0.27,-0.81 -0.27,-1.4l0 -8.74c0,-0.52 0.08,-0.95 0.23,-1.29 0.15,-0.34 0.35,-0.61 0.61,-0.82 0.25,-0.2 0.54,-0.35 0.85,-0.44 0.31,-0.09 0.62,-0.13 0.94,-0.13 0.72,0.01 1.41,0.03 2.06,0.04 0.65,0.01 1.29,0.03 1.9,0.05 0.62,0.02 1.21,0.04 1.8,0.07l0 0.86 -5.53 0c-0.53,0 -0.96,0.14 -1.27,0.43 -0.32,0.29 -0.48,0.74 -0.48,1.38l0 3.71 6.48 0.09 0 0.82 -6.48 0.1 0 3.69c0,0.52 0.09,0.91 0.28,1.16 0.18,0.25 0.42,0.42 0.71,0.5 0.29,0.08 0.59,0.12 0.89,0.12l5.4 0 0 0.86c-0.58,0.03 -1.19,0.05 -1.81,0.07 -0.63,0.02 -1.25,0.04 -1.87,0.06 -0.62,0.02 -1.24,0.04 -1.86,0.05zm8.08 -0.08l0 -11.27c0,-0.52 0.08,-0.95 0.23,-1.29 0.15,-0.34 0.35,-0.61 0.61,-0.82 0.25,-0.2 0.54,-0.35 0.85,-0.44 0.31,-0.09 0.62,-0.13 0.94,-0.13 0.58,0.01 1.2,0.02 1.84,0.03 0.65,0.01 1.3,0.02 1.97,0.04 0.66,0.02 1.31,0.05 1.95,0.08l0 0.86 -5.55 0c-0.52,0 -0.94,0.15 -1.25,0.45 -0.32,0.3 -0.48,0.75 -0.48,1.36l0 3.99 6.48 0.09 0 0.82 -6.48 0.09 0 6.14 -1.1 0zm13.36 0c-0.48,0 -0.93,-0.08 -1.33,-0.23 -0.41,-0.15 -0.73,-0.42 -0.97,-0.81 -0.24,-0.39 -0.36,-0.92 -0.36,-1.61l0 -11.31 1.1 0 0 11.18c0,0.49 0.09,0.87 0.26,1.12 0.17,0.25 0.39,0.42 0.67,0.5 0.27,0.08 0.55,0.12 0.83,0.12l5.17 0 0 1.03 -5.36 0zm7.43 0l0 -13.95 1.1 0 0 13.95 -1.1 0zm8.4 0.09c-0.89,0.01 -1.63,-0.11 -2.21,-0.38 -0.59,-0.27 -1.05,-0.69 -1.4,-1.26 -0.34,-0.58 -0.58,-1.32 -0.72,-2.22 -0.14,-0.91 -0.21,-1.99 -0.21,-3.26 0,-1.2 0.07,-2.25 0.22,-3.14 0.15,-0.89 0.39,-1.62 0.74,-2.2 0.35,-0.58 0.82,-1 1.42,-1.28 0.6,-0.28 1.34,-0.42 2.22,-0.42 0.44,0 0.93,0.02 1.45,0.05 0.53,0.03 1.05,0.08 1.57,0.15 0.52,0.07 0.99,0.15 1.41,0.24l0 0.82c-0.24,-0.03 -0.59,-0.06 -1.06,-0.11 -0.47,-0.04 -0.98,-0.08 -1.55,-0.11 -0.56,-0.03 -1.12,-0.05 -1.68,-0.05 -0.94,0 -1.67,0.21 -2.2,0.62 -0.53,0.41 -0.9,1.06 -1.11,1.95 -0.21,0.89 -0.31,2.06 -0.31,3.52 0,1.17 0.06,2.14 0.17,2.92 0.11,0.78 0.31,1.4 0.58,1.87 0.27,0.47 0.65,0.8 1.12,1 0.47,0.2 1.08,0.29 1.82,0.29 0.63,0 1.29,-0.09 1.97,-0.27 0.68,-0.18 1.26,-0.37 1.76,-0.57l0 -4.54 -3.65 0 0 -0.8c0.24,-0.04 0.53,-0.07 0.86,-0.09 0.33,-0.03 0.68,-0.05 1.06,-0.07 0.38,-0.02 0.77,-0.03 1.18,-0.03 0.32,0 0.61,0.01 0.89,0.02 0.28,0.01 0.52,0.03 0.72,0.06l0 7.2 -0.8 0 -0.19 -0.99c-0.47,0.23 -1.06,0.46 -1.79,0.7 -0.72,0.24 -1.48,0.37 -2.26,0.38zm8.13 -0.09l0 -13.95 1.1 0 0 6.67 7.53 0 0 -6.67 1.1 0 0 13.95 -1.1 0 0 -6.29 -7.53 0 0 6.29 -1.1 0zm16.06 0l0 -12.96 -4.47 0 0 -0.99 10.03 0 0 0.99 -4.47 0 0 12.96 -1.1 0z"/>
   <path class="fil2" fill="#C5523A" d="M53.46 77.36c28.12,-38.81 69.23,-66.26 115.86,-77.36 -51.38,8.85 -97.67,36.41 -129.94,77.36l14.08 0z"/>
  </g>
 </g>
</svg>
