<?xml version="1.0" encoding="UTF-8"?>
<!DOCTYPE svg PUBLIC "-//W3C//DTD SVG 1.1//EN" "http://www.w3.org/Graphics/SVG/1.1/DTD/svg11.dtd">
<!-- Creator: CorelDRAW 2020 (64 Bit) -->
<svg xmlns="http://www.w3.org/2000/svg" xml:space="preserve" width="25.3073mm" height="7.6973mm" version="1.1" style="shape-rendering:geometricPrecision; text-rendering:geometricPrecision; image-rendering:optimizeQuality; fill-rule:evenodd; clip-rule:evenodd"
viewBox="0 0 417.79 127.07"
 xmlns:xlink="http://www.w3.org/1999/xlink"
 xmlns:xodm="http://www.corel.com/coreldraw/odm/2003">
 <defs>
 </defs>
 <g id="Camada_x0020_1">
  <metadata id="CorelCorpID_0Corel-Layer"/>
  <g id="_1762847961712">
   <path class="fil0" fill="black" fill-rule="nonzero" d="M17.22 93.17c-3.62,0 -6.73,-0.56 -9.34,-1.67 -2.61,-1.11 -4.57,-2.94 -5.9,-5.48 -1.32,-2.54 -1.98,-5.9 -1.98,-10.07l0 -59.79 12.83 0 0 57.7c0,1.95 0.35,3.5 1.04,4.64 0.7,1.15 1.62,1.93 2.77,2.35 1.15,0.42 2.42,0.63 3.81,0.63l25.56 0 0 11.69 -28.8 0zm66.99 0.63c-5.15,0 -9.65,-0.5 -13.51,-1.51 -3.86,-1.01 -7.09,-2.85 -9.7,-5.53 -2.61,-2.68 -4.56,-6.59 -5.84,-11.74 -1.29,-5.15 -1.93,-11.86 -1.93,-20.14 0,-8.35 0.66,-15.11 1.98,-20.29 1.32,-5.18 3.29,-9.15 5.9,-11.9 2.61,-2.75 5.84,-4.64 9.7,-5.69 3.86,-1.04 8.33,-1.57 13.41,-1.57 5.22,0 9.77,0.52 13.67,1.57 3.9,1.04 7.13,2.94 9.7,5.69 2.58,2.75 4.51,6.71 5.79,11.9 1.29,5.18 1.93,11.95 1.93,20.29 0,5.3 -0.26,9.96 -0.79,13.97 -9.87,7.77 -19.33,16.08 -28.34,24.92 -0.64,0.02 -1.3,0.02 -1.96,0.02zm0 -11.58c3.41,0 6.28,-0.37 8.61,-1.1 2.33,-0.73 4.19,-2.05 5.58,-3.97 1.39,-1.91 2.4,-4.66 3.03,-8.24 0.63,-3.58 0.94,-8.26 0.94,-14.03 0,-6.12 -0.33,-11.01 -0.99,-14.66 -0.66,-3.65 -1.69,-6.43 -3.08,-8.35 -1.39,-1.91 -3.23,-3.2 -5.53,-3.86 -2.29,-0.66 -5.15,-0.99 -8.55,-0.99 -3.2,0 -5.95,0.33 -8.24,0.99 -2.29,0.66 -4.16,1.95 -5.58,3.86 -1.43,1.91 -2.49,4.7 -3.18,8.35 -0.7,3.65 -1.04,8.54 -1.04,14.66 0,5.77 0.3,10.45 0.89,14.03 0.59,3.58 1.58,6.33 2.97,8.24 1.39,1.91 3.25,3.24 5.58,3.97 2.33,0.73 5.2,1.1 8.61,1.1zm72.52 11.58c-5.15,0 -9.65,-0.5 -13.51,-1.51 -3.86,-1.01 -7.1,-2.85 -9.7,-5.53 -1.45,-1.49 -2.7,-3.37 -3.74,-5.62 3.39,-3.22 6.85,-6.37 10.38,-9.44 0.59,2.26 1.39,4.08 2.39,5.47 1.39,1.91 3.25,3.24 5.58,3.97 2.33,0.73 5.2,1.1 8.61,1.1 3.41,0 6.28,-0.37 8.61,-1.1 2.33,-0.73 4.19,-2.05 5.58,-3.97 1.39,-1.91 2.4,-4.66 3.03,-8.24 0.63,-3.58 0.94,-8.26 0.94,-14.03 0,-3.54 -0.11,-6.67 -0.33,-9.39 3.96,-2.62 7.97,-5.15 12.04,-7.6 0.82,4.65 1.23,10.31 1.23,16.98 0,8.28 -0.64,14.99 -1.93,20.14 -1.29,5.15 -3.24,9.06 -5.84,11.74 -2.61,2.68 -5.84,4.52 -9.7,5.53 -3.86,1.01 -8.4,1.51 -13.62,1.51zm-30.89 -33.49c-0.07,-1.73 -0.1,-3.54 -0.1,-5.43 0,-8.35 0.66,-15.11 1.98,-20.29 1.32,-5.18 3.29,-9.15 5.9,-11.9 2.61,-2.75 5.84,-4.64 9.7,-5.69 3.86,-1.04 8.33,-1.57 13.41,-1.57 5.22,0 9.77,0.52 13.67,1.57 3.89,1.04 7.13,2.94 9.7,5.69 1.09,1.17 2.07,2.55 2.93,4.16 -3.96,1.83 -7.87,3.73 -11.76,5.71 -0.15,-0.24 -0.3,-0.47 -0.46,-0.69 -1.39,-1.91 -3.24,-3.2 -5.53,-3.86 -2.3,-0.66 -5.15,-0.99 -8.56,-0.99 -3.2,0 -5.95,0.33 -8.24,0.99 -2.3,0.66 -4.16,1.95 -5.58,3.86 -1.43,1.91 -2.49,4.7 -3.18,8.35 -0.56,2.94 -0.89,6.68 -1,11.23 -4.36,2.86 -8.65,5.81 -12.88,8.87zm74.4 32.86l0 -63.04c4.23,-2.27 8.51,-4.45 12.84,-6.54l0 25.44 11.37 0 17.74 -32.87 13.77 0 -21.18 38.61 21.7 38.4 -13.77 0 -18.26 -32.45 -11.37 0 0 32.45 -12.84 0zm121.56 0.52c-4.24,0 -8.17,-0.36 -11.79,-1.1 -3.62,-0.73 -6.75,-2.02 -9.39,-3.86 -2.64,-1.84 -4.68,-4.38 -6.1,-7.62 -1.43,-3.23 -2.14,-7.39 -2.14,-12.47l0 -52.48 12.84 0 0 52.48c0,3.34 0.66,6 1.98,7.98 1.32,1.98 3.22,3.39 5.69,4.23 2.47,0.83 5.44,1.25 8.92,1.25 3.48,0 6.45,-0.42 8.92,-1.25 2.47,-0.84 4.36,-2.24 5.69,-4.23 1.32,-1.98 1.98,-4.64 1.98,-7.98l0 -52.48 12.83 0 0 52.48c0,5.08 -0.71,9.23 -2.14,12.47 -1.42,3.23 -3.46,5.77 -6.1,7.62 -2.64,1.84 -5.76,3.13 -9.34,3.86 -3.58,0.73 -7.53,1.1 -11.84,1.1zm42.78 -0.52l0 -77 31.83 0c2.44,0 4.9,0.3 7.41,0.89 2.5,0.59 4.82,1.76 6.94,3.49 2.12,1.74 3.83,4.31 5.11,7.72 1.29,3.41 1.93,7.97 1.93,13.67 0,5.71 -0.66,10.3 -1.98,13.77 -1.32,3.48 -3.04,6.14 -5.17,7.98 -2.12,1.84 -4.42,3.1 -6.89,3.76 -2.47,0.66 -4.85,0.99 -7.15,0.99 -1.18,0 -2.66,-0.05 -4.43,-0.16 -1.77,-0.11 -3.62,-0.24 -5.53,-0.42 -1.91,-0.17 -3.69,-0.35 -5.32,-0.52 -1.64,-0.17 -2.94,-0.33 -3.91,-0.47l0 26.29 -12.84 0zm12.84 -36.41l17.32 0c2.02,0 3.79,-0.47 5.32,-1.41 1.53,-0.94 2.71,-2.47 3.55,-4.59 0.84,-2.12 1.25,-5.03 1.25,-8.71 0,-3.62 -0.44,-6.47 -1.31,-8.56 -0.87,-2.09 -2.02,-3.57 -3.44,-4.43 -1.43,-0.87 -3.08,-1.31 -4.96,-1.31l-17.74 0 0 29.01z"/>
   <path class="fil1" fill="#C5523A" fill-rule="nonzero" d="M121.94 127.07c-0.44,0 -0.96,-0.01 -1.57,-0.03 -0.61,-0.02 -1.25,-0.06 -1.93,-0.11 -0.67,-0.05 -1.3,-0.1 -1.89,-0.16 -0.59,-0.05 -1.07,-0.12 -1.44,-0.2l0 -1.37c0.48,0.04 1.08,0.08 1.82,0.12 0.74,0.04 1.53,0.07 2.39,0.09 0.86,0.02 1.71,0.03 2.56,0.03 0.97,0 1.86,-0.1 2.67,-0.3 0.81,-0.2 1.45,-0.57 1.93,-1.12 0.48,-0.55 0.71,-1.35 0.71,-2.41l0 -1.74c0,-1.16 -0.29,-2.05 -0.87,-2.67 -0.58,-0.62 -1.53,-0.93 -2.86,-0.93l-2.64 0c-1.78,0 -3.18,-0.39 -4.21,-1.16 -1.03,-0.78 -1.54,-2.15 -1.54,-4.12l0 -1.34c0,-2.13 0.56,-3.63 1.68,-4.49 1.12,-0.86 2.68,-1.29 4.69,-1.29 0.62,0 1.34,0.03 2.16,0.09 0.82,0.06 1.62,0.14 2.41,0.22 0.79,0.08 1.42,0.17 1.9,0.25l0 1.37c-0.89,-0.06 -1.91,-0.13 -3.04,-0.2 -1.14,-0.07 -2.23,-0.11 -3.26,-0.11 -0.99,0 -1.85,0.12 -2.56,0.36 -0.71,0.24 -1.26,0.66 -1.65,1.27 -0.38,0.61 -0.58,1.47 -0.58,2.59l0 1.21c0,1.39 0.36,2.34 1.07,2.84 0.71,0.51 1.7,0.76 2.96,0.76l2.77 0c1.22,0 2.23,0.22 3.01,0.67 0.79,0.45 1.37,1.06 1.74,1.83 0.37,0.78 0.56,1.66 0.56,2.66l0 1.9c0,1.47 -0.32,2.6 -0.96,3.38 -0.64,0.79 -1.49,1.33 -2.55,1.63 -1.06,0.3 -2.22,0.45 -3.48,0.45zm11.49 -0.19l0 -22.8 8.88 0c0.66,0 1.33,0.09 2,0.26 0.67,0.18 1.3,0.51 1.88,0.99 0.58,0.49 1.04,1.2 1.38,2.14 0.34,0.94 0.51,2.18 0.51,3.71 0,1.55 -0.19,2.81 -0.56,3.77 -0.37,0.96 -0.86,1.7 -1.46,2.22 -0.6,0.52 -1.25,0.87 -1.94,1.06 -0.69,0.19 -1.35,0.28 -1.97,0.28 -0.31,0 -0.78,-0 -1.41,-0.01 -0.63,-0.01 -1.31,-0.03 -2.04,-0.06 -0.72,-0.03 -1.4,-0.06 -2.03,-0.09 -0.63,-0.03 -1.11,-0.07 -1.44,-0.11l0 8.63 -1.8 0zm1.8 -9.97l6.71 0c0.79,0 1.51,-0.17 2.17,-0.5 0.66,-0.33 1.19,-0.91 1.58,-1.72 0.39,-0.82 0.59,-1.98 0.59,-3.49 0,-1.47 -0.2,-2.6 -0.59,-3.4 -0.39,-0.8 -0.89,-1.35 -1.51,-1.65 -0.61,-0.3 -1.28,-0.45 -2,-0.45l-6.96 0 0 11.21zm13.79 9.97l8.04 -22.8 2.33 0 8.04 22.8 -1.89 0 -2.52 -7.08 -9.63 0 -2.49 7.08 -1.89 0zm4.85 -8.7l8.63 0 -4.29 -12.49 -4.35 12.49zm24.41 8.88c-1.39,0 -2.58,-0.16 -3.59,-0.47 -1,-0.31 -1.83,-0.87 -2.48,-1.69 -0.65,-0.82 -1.13,-1.99 -1.44,-3.52 -0.31,-1.53 -0.47,-3.52 -0.47,-5.96 0,-2.3 0.16,-4.2 0.48,-5.7 0.32,-1.5 0.81,-2.68 1.48,-3.52 0.66,-0.85 1.51,-1.44 2.55,-1.79 1.04,-0.34 2.27,-0.51 3.7,-0.51 0.54,0 1.18,0.03 1.91,0.09 0.74,0.06 1.5,0.15 2.28,0.25 0.79,0.1 1.51,0.24 2.17,0.4l0 1.34c-0.33,-0.08 -0.83,-0.16 -1.49,-0.22 -0.66,-0.06 -1.4,-0.12 -2.22,-0.17 -0.82,-0.05 -1.63,-0.08 -2.44,-0.08 -1.2,0 -2.22,0.14 -3.06,0.42 -0.84,0.28 -1.52,0.78 -2.04,1.49 -0.52,0.71 -0.9,1.72 -1.15,3.01 -0.25,1.29 -0.37,2.96 -0.37,4.99 0,2.13 0.12,3.86 0.36,5.19 0.24,1.32 0.61,2.33 1.12,3.03 0.51,0.69 1.18,1.17 2,1.43 0.83,0.26 1.83,0.39 3.01,0.39 1.55,0 2.83,-0.05 3.83,-0.14 1,-0.09 1.82,-0.18 2.44,-0.26l0 1.34c-0.64,0.12 -1.35,0.24 -2.11,0.34 -0.77,0.1 -1.53,0.19 -2.3,0.25 -0.77,0.06 -1.49,0.09 -2.17,0.09zm14.88 -0.06c-0.52,0 -1.04,-0.05 -1.57,-0.14 -0.53,-0.09 -1.03,-0.28 -1.49,-0.56 -0.47,-0.28 -0.84,-0.7 -1.13,-1.27 -0.29,-0.57 -0.43,-1.33 -0.43,-2.28l0 -14.29c0,-0.85 0.12,-1.55 0.37,-2.11 0.25,-0.56 0.58,-1 0.99,-1.34 0.41,-0.33 0.87,-0.57 1.38,-0.71 0.51,-0.15 1.02,-0.22 1.54,-0.22 1.18,0.02 2.3,0.04 3.37,0.06 1.07,0.02 2.1,0.05 3.11,0.08 1,0.03 1.98,0.07 2.94,0.11l0 1.4 -9.04 0c-0.87,0 -1.56,0.23 -2.08,0.7 -0.52,0.47 -0.78,1.22 -0.78,2.25l0 6.06 10.59 0.16 0 1.34 -10.59 0.16 0 6.03c0,0.85 0.15,1.48 0.45,1.89 0.3,0.41 0.69,0.69 1.16,0.82 0.48,0.14 0.96,0.2 1.46,0.2l8.82 0 0 1.4c-0.95,0.04 -1.94,0.08 -2.97,0.11 -1.03,0.03 -2.04,0.06 -3.06,0.09 -1.02,0.03 -2.03,0.06 -3.04,0.08zm13.2 -0.12l0 -18.42c0,-0.85 0.12,-1.55 0.37,-2.11 0.25,-0.56 0.58,-1 0.99,-1.34 0.41,-0.33 0.87,-0.57 1.38,-0.71 0.51,-0.15 1.02,-0.22 1.54,-0.22 0.95,0.02 1.96,0.03 3.01,0.05 1.06,0.01 2.13,0.03 3.21,0.06 1.09,0.03 2.15,0.08 3.18,0.14l0 1.4 -9.07 0c-0.85,0 -1.53,0.24 -2.05,0.73 -0.52,0.49 -0.78,1.23 -0.78,2.22l0 6.52 10.59 0.16 0 1.34 -10.59 0.16 0 10.03 -1.8 0zm21.83 0c-0.79,0 -1.51,-0.12 -2.17,-0.37 -0.66,-0.25 -1.19,-0.69 -1.58,-1.32 -0.39,-0.63 -0.59,-1.51 -0.59,-2.62l0 -18.48 1.8 0 0 18.26c0,0.81 0.14,1.42 0.42,1.83 0.28,0.41 0.64,0.69 1.09,0.82 0.44,0.13 0.89,0.2 1.35,0.2l8.45 0 0 1.68 -8.76 0zm12.14 0l0 -22.8 1.8 0 0 22.8 -1.8 0zm13.73 0.16c-1.45,0.02 -2.66,-0.19 -3.62,-0.62 -0.96,-0.44 -1.72,-1.12 -2.28,-2.07 -0.56,-0.94 -0.95,-2.15 -1.18,-3.64 -0.23,-1.48 -0.34,-3.26 -0.34,-5.33 0,-1.97 0.12,-3.68 0.36,-5.12 0.24,-1.45 0.64,-2.65 1.21,-3.59 0.57,-0.94 1.34,-1.64 2.31,-2.09 0.97,-0.46 2.18,-0.68 3.63,-0.68 0.72,0 1.52,0.02 2.38,0.08 0.86,0.05 1.71,0.13 2.56,0.25 0.85,0.11 1.61,0.24 2.3,0.39l0 1.34c-0.39,-0.04 -0.97,-0.1 -1.74,-0.17 -0.77,-0.07 -1.61,-0.14 -2.53,-0.19 -0.92,-0.05 -1.84,-0.08 -2.75,-0.08 -1.53,0 -2.73,0.34 -3.6,1.01 -0.87,0.67 -1.48,1.74 -1.82,3.18 -0.34,1.45 -0.51,3.36 -0.51,5.75 0,1.91 0.09,3.49 0.28,4.77 0.19,1.27 0.5,2.29 0.95,3.06 0.44,0.77 1.05,1.31 1.83,1.63 0.78,0.32 1.76,0.48 2.96,0.48 1.04,0 2.11,-0.15 3.22,-0.43 1.11,-0.29 2.07,-0.6 2.87,-0.93l0 -7.42 -5.96 0 0 -1.31c0.39,-0.06 0.86,-0.11 1.4,-0.16 0.54,-0.04 1.12,-0.08 1.74,-0.11 0.62,-0.03 1.26,-0.05 1.92,-0.05 0.52,0 1.01,0.01 1.46,0.03 0.46,0.02 0.85,0.05 1.18,0.09l0 11.77 -1.31 0 -0.31 -1.61c-0.77,0.37 -1.74,0.75 -2.92,1.15 -1.18,0.39 -2.41,0.6 -3.7,0.62zm13.29 -0.16l0 -22.8 1.8 0 0 10.9 12.3 0 0 -10.9 1.8 0 0 22.8 -1.8 0 0 -10.28 -12.3 0 0 10.28 -1.8 0zm26.24 0l0 -21.18 -7.3 0 0 -1.61 16.4 0 0 1.61 -7.3 0 0 21.18 -1.8 0z"/>
   <path class="fil2" fill="#C5523A" d="M87.36 126.42c45.96,-63.43 113.13,-108.29 189.34,-126.42 -83.97,14.46 -159.62,59.5 -212.35,126.42l23.02 0z"/>
  </g>
 </g>
</svg>
